<svg width="20" height="20" viewBox="0 0 20 20" fill="none" xmlns="http://www.w3.org/2000/svg">
<path fill-rule="evenodd" clip-rule="evenodd" d="M10 20C8.02218 20 6.08876 19.4135 4.44427 18.3147C2.79978 17.2159 1.51808 15.6541 0.761205 13.8268C0.00432814 11.9996 -0.193699 9.98891 0.192153 8.0491C0.578006 6.10929 1.53039 4.32746 2.92892 2.92894C4.32745 1.53041 6.1093 0.578004 8.04911 0.192152C9.98892 -0.1937 11.9996 0.00433286 13.8269 0.761209C15.6541 1.51809 17.2159 2.79981 18.3147 4.4443C19.4135 6.0888 20 8.02219 20 10C20 12.6522 18.9464 15.1957 17.0711 17.0711C15.1957 18.9464 12.6522 20 10 20ZM10 1.66667C8.35182 1.66667 6.74064 2.15541 5.37023 3.07109C3.99982 3.98677 2.93175 5.28826 2.30102 6.81097C1.67029 8.33369 1.50523 10.0092 1.82678 11.6258C2.14832 13.2423 2.94202 14.7271 4.10746 15.8926C5.2729 17.058 6.75772 17.8517 8.37422 18.1732C9.99073 18.4948 11.6663 18.3297 13.189 17.699C14.7118 17.0683 16.0132 16.0002 16.9289 14.6298C17.8446 13.2593 18.3333 11.6482 18.3333 10C18.3333 7.78987 17.4553 5.67025 15.8925 4.10745C14.3297 2.54465 12.2101 1.66667 10 1.66667ZM9.93332 13.6108C9.90373 13.7344 9.84026 13.8472 9.75001 13.9367C9.67227 14.0149 9.57811 14.0749 9.47433 14.1122C9.37056 14.1495 9.25974 14.1633 9.14998 14.1525C8.97672 14.1646 8.80455 14.117 8.66206 14.0177C8.51956 13.9185 8.4153 13.7734 8.36665 13.6067L6.01664 11.2583C5.88979 11.1154 5.82233 10.9294 5.82799 10.7383C5.83365 10.5473 5.91201 10.3656 6.04711 10.2304C6.1822 10.0952 6.36383 10.0167 6.55487 10.0109C6.7459 10.0051 6.93193 10.0724 7.07499 10.1992L8.89165 12.0192L12.6083 5.43C12.6617 5.33235 12.7341 5.24639 12.8212 5.17717C12.9083 5.10794 13.0085 5.05687 13.1156 5.02697C13.2228 4.99706 13.3349 4.98893 13.4453 5.00305C13.5557 5.01717 13.6621 5.05325 13.7583 5.10917C13.9518 5.22856 14.0913 5.41851 14.1473 5.63888C14.2033 5.85924 14.1714 6.09273 14.0583 6.29L9.93332 13.6108Z" fill="#226F54"/>
</svg>
