<svg width="32" height="32" viewBox="0 0 32 32" fill="none" xmlns="http://www.w3.org/2000/svg">
<path d="M25.5712 3.55556H20.169C19.8933 1.55011 18.1697 0 16.0898 0C14.0099 0 12.2861 1.55011 12.0106 3.55556H6.50054C5.43118 3.55556 4.52527 4.42559 4.52527 5.49495V30.0606C4.52527 31.13 5.43118 32 6.50054 32H25.5712C26.6406 32 27.4748 31.13 27.4748 30.0606V5.49495C27.4748 4.42559 26.6406 3.55556 25.5712 3.55556ZM10.0258 5.17172C10.3956 7.11467 12.082 8.51178 14.13 8.51178H18.0496C20.0976 8.51178 21.784 7.11467 22.1538 5.17172H24.027V28.4444H8.08082V5.17172H10.0258ZM16.0898 1.72391C17.2163 1.72391 18.163 2.50602 18.4171 3.55556H13.7625C14.0166 2.50602 14.9632 1.72391 16.0898 1.72391Z" fill="#226F54"/>
<path d="M16.0538 11.7441H10.6666V13.3603H16.0538V11.7441Z" fill="#226F54"/>
<path d="M21.623 11.3213L20.4331 10.2275L18.9012 11.8939L18.2343 11.3505L17.2135 12.6035L19.0607 14.1085L21.623 11.3213Z" fill="#226F54"/>
<path d="M16.0538 16.9158H10.6666V18.532H16.0538V16.9158Z" fill="#226F54"/>
<path d="M21.623 16.4931L20.4331 15.3992L18.9012 17.0656L18.2343 16.5222L17.2135 17.7752L19.0607 19.2802L21.623 16.4931Z" fill="#226F54"/>
<path d="M16.0538 22.0876H10.6666V23.7037H16.0538V22.0876Z" fill="#226F54"/>
<path d="M21.623 21.6647L20.4331 20.5709L18.9012 22.2373L18.2343 21.6939L17.2135 22.9469L19.0607 24.4519L21.623 21.6647Z" fill="#226F54"/>
</svg>
